# xmcd
#
# Track frame offsets: 
#        150
#        9315
#        27901
#        46945
#        69374
#        96523
#        118485
#        135535
#        156025
#        173119
#        190774
#        210675
#        229459
#        257408
#
# Disc length: 4637 seconds
#
# Revision: 1
# Processed by: cddbd v1.5.2PL0 Copyright (c) Steve Scherf et al.
# Submitted via: ExactAudioCopy v0.90b4
#
DISCID=bd121b0e
DTITLE=Ray Robinson - What It Is
DYEAR=2004
DGENRE=R&B
TTITLE0=What It Is (Intro)
TTITLE1=My Heart
TTITLE2=Missed Your Chance
TTITLE3=I'm Down
TTITLE4=Good Times
TTITLE5=Because Of You
TTITLE6=Move It
TTITLE7=Gotta
TTITLE8=Girlfriend
TTITLE9=Heaven
TTITLE10=Be The One
TTITLE11=Summer Star
TTITLE12=Pleasure Is Pain
TTITLE13=Patiently Waiting
EXTD=Independant Canadian Artist
EXTT0=
EXTT1=
EXTT2=
EXTT3=
EXTT4=
EXTT5=
EXTT6=
EXTT7=
EXTT8=
EXTT9=
EXTT10=
EXTT11=
EXTT12=
EXTT13=
PLAYORDER=
